# xmcd
#
# Track frame offsets:
#	150
#	21171
#	37481
#	57355
#	73592
#	88820
#	106467
#	125431
#	145410
#	164196
#
# Disc length: 2380 seconds
#
# Revision: 3
# Processed by: cddbd v1.5.2PL0 Copyright (c) Steve Scherf et al.
# Submitted via: EasyCDDAExtractor 15.3.0.1
#
DISCID=9d094a0a
DTITLE=Ednita Nazario - Coleccion Suprema
DYEAR=2007
DGENRE=Latin
TTITLE0=Lo Que Son Las Cosas
TTITLE1=Perdiendo Tu Amor
TTITLE2=Ahora Es Tarde Ya
TTITLE3=No Voy A Llorar
TTITLE4=Mio
TTITLE5=Tres Deseos
TTITLE6=Mas Que Un Amigo
TTITLE7=Aqui Estoy Yo
TTITLE8=Metamorfosis
TTITLE9=Mirame
EXTD=
EXTT0=
EXTT1=
EXTT2=
EXTT3=
EXTT4=
EXTT5=
EXTT6=
EXTT7=
EXTT8=
EXTT9=
PLAYORDER=
